<svg width="102" height="83" viewBox="0 0 102 83" fill="none" xmlns="http://www.w3.org/2000/svg">
<path d="M42.8166 5.25649L2.28263 67.7724C1.44691 69.1095 1.00472 70.6254 1.00004 72.1694C0.995358 73.7134 1.42836 75.2316 2.25596 76.5729C3.08356 77.9143 4.27691 79.0321 5.71729 79.8151C7.15767 80.5981 8.79487 81.0191 10.466 81.0361H91.534C93.2051 81.0191 94.8423 80.5981 96.2827 79.8151C97.7231 79.0321 98.9164 77.9143 99.744 76.5729C100.572 75.2316 101.005 73.7134 101 72.1694C100.995 70.6254 100.553 69.1095 99.7174 67.7724L59.1834 5.25649C58.3302 3.95713 57.129 2.88283 55.6956 2.13726C54.2622 1.39168 52.645 1 51 1C49.355 1 47.7378 1.39168 46.3044 2.13726C44.871 2.88283 43.6698 3.95713 42.8166 5.25649Z" stroke="white" stroke-width="2" stroke-linecap="round" stroke-linejoin="round"/>
<path d="M51 27.9816V45.6664" stroke="white" stroke-width="2" stroke-linecap="round" stroke-linejoin="round"/>
<path d="M51 63.3513H51.0472" stroke="white" stroke-width="2" stroke-linecap="round" stroke-linejoin="round"/>
</svg>
